<?xml version="1.0" encoding="utf-8"?>
<svg viewBox="92.526 25.033 300 65" xmlns="http://www.w3.org/2000/svg">
  <defs>
    <style>.b1{fill:#000003}.g1{fill:#999999}</style>
  </defs>
  <path d="M 178.053 66.013 L 178.053 52.394 L 167.501 37.266 L 171.253 37.266 L 179.734 49.458 L 188.176 37.266 L 191.81 37.266 L 181.258 52.475 L 181.258 66.013 L 178.053 66.013 Z M 197.277 66.38 C 195.975 66.38 194.809 66.115 193.78 65.585 C 192.75 65.055 191.936 64.328 191.337 63.403 C 190.738 62.479 190.438 61.446 190.438 60.304 C 190.438 58.864 190.796 57.722 191.513 56.879 C 192.229 56.036 193.415 55.432 195.069 55.065 C 196.724 54.698 198.984 54.514 201.85 54.514 L 203.101 54.514 L 203.101 53.25 C 203.101 51.565 202.768 50.348 202.104 49.601 C 201.44 48.853 200.378 48.479 198.919 48.479 C 197.772 48.479 196.665 48.649 195.597 48.989 C 194.529 49.329 193.434 49.879 192.314 50.64 L 191.22 48.235 C 192.21 47.501 193.415 46.916 194.835 46.481 C 196.255 46.046 197.616 45.829 198.919 45.829 C 201.368 45.829 203.185 46.454 204.371 47.704 C 205.556 48.955 206.149 50.899 206.149 53.535 L 206.149 66.013 L 203.179 66.013 L 203.179 62.588 C 202.684 63.757 201.922 64.681 200.893 65.361 C 199.863 66.04 198.658 66.38 197.277 66.38 Z M 197.786 63.893 C 199.349 63.893 200.625 63.329 201.616 62.2 C 202.606 61.072 203.101 59.638 203.101 57.899 L 203.101 56.675 L 201.889 56.675 C 199.779 56.675 198.118 56.777 196.906 56.981 C 195.695 57.185 194.848 57.538 194.366 58.041 C 193.884 58.544 193.643 59.231 193.643 60.1 C 193.643 61.215 194.014 62.126 194.757 62.832 C 195.499 63.539 196.509 63.893 197.786 63.893 Z M 197.825 43.545 L 201.85 35.309 L 205.25 35.309 L 200.091 43.545 L 197.825 43.545 Z M 212.089 66.013 L 212.089 46.196 L 215.176 46.196 L 215.176 49.539 C 215.749 48.343 216.544 47.426 217.56 46.787 C 218.576 46.148 219.762 45.829 221.117 45.829 C 224.087 45.829 225.989 47.174 226.823 49.866 C 227.396 48.615 228.243 47.63 229.363 46.909 C 230.483 46.189 231.773 45.829 233.232 45.829 C 237.453 45.829 239.563 48.438 239.563 53.658 L 239.563 66.013 L 236.398 66.013 L 236.398 53.821 C 236.398 52 236.092 50.661 235.479 49.804 C 234.867 48.948 233.857 48.52 232.45 48.52 C 230.913 48.52 229.689 49.091 228.777 50.233 C 227.865 51.374 227.409 52.897 227.409 54.8 L 227.409 66.013 L 224.243 66.013 L 224.243 53.821 C 224.243 52 223.937 50.661 223.325 49.804 C 222.712 48.948 221.703 48.52 220.296 48.52 C 218.733 48.52 217.502 49.091 216.603 50.233 C 215.704 51.374 215.254 52.897 215.254 54.8 L 215.254 66.013 L 212.089 66.013 Z M 251.442 66.38 C 250.14 66.38 248.974 66.115 247.945 65.585 C 246.915 65.055 246.101 64.328 245.502 63.403 C 244.903 62.479 244.603 61.446 244.603 60.304 C 244.603 58.864 244.961 57.722 245.678 56.879 C 246.394 56.036 247.58 55.432 249.234 55.065 C 250.889 54.698 253.149 54.514 256.015 54.514 L 257.266 54.514 L 257.266 53.25 C 257.266 51.565 256.933 50.348 256.269 49.601 C 255.605 48.853 254.543 48.479 253.084 48.479 C 251.937 48.479 250.83 48.649 249.762 48.989 C 248.694 49.329 247.599 49.879 246.479 50.64 L 245.385 48.235 C 246.375 47.501 247.58 46.916 249 46.481 C 250.42 46.046 251.781 45.829 253.084 45.829 C 255.533 45.829 257.35 46.454 258.536 47.704 C 259.721 48.955 260.314 50.899 260.314 53.535 L 260.314 66.013 L 257.344 66.013 L 257.344 62.588 C 256.849 63.757 256.087 64.681 255.058 65.361 C 254.028 66.04 252.823 66.38 251.442 66.38 Z M 251.951 63.893 C 253.514 63.893 254.79 63.329 255.781 62.2 C 256.771 61.072 257.266 59.638 257.266 57.899 L 257.266 56.675 L 256.054 56.675 C 253.944 56.675 252.283 56.777 251.071 56.981 C 249.86 57.185 249.013 57.538 248.531 58.041 C 248.049 58.544 247.808 59.231 247.808 60.1 C 247.808 61.215 248.179 62.126 248.922 62.832 C 249.664 63.539 250.674 63.893 251.951 63.893 Z M 272.58 66.38 C 271.095 66.38 269.688 66.162 268.359 65.728 C 267.03 65.293 265.936 64.681 265.076 63.893 L 266.092 61.568 C 267.03 62.357 268.066 62.934 269.199 63.301 C 270.333 63.668 271.485 63.852 272.658 63.852 C 274.143 63.852 275.263 63.566 276.019 62.996 C 276.775 62.425 277.152 61.65 277.152 60.671 C 277.152 59.91 276.905 59.305 276.41 58.857 C 275.915 58.408 275.133 58.062 274.065 57.817 L 270.508 57.001 C 267.278 56.267 265.662 54.528 265.662 51.782 C 265.662 49.988 266.346 48.547 267.714 47.46 C 269.082 46.372 270.873 45.829 273.088 45.829 C 274.391 45.829 275.635 46.039 276.82 46.461 C 278.006 46.882 278.989 47.501 279.771 48.316 L 278.716 50.64 C 277.96 49.906 277.081 49.342 276.078 48.948 C 275.074 48.554 274.078 48.357 273.088 48.357 C 271.629 48.357 270.521 48.656 269.766 49.254 C 269.01 49.852 268.632 50.64 268.632 51.619 C 268.632 53.141 269.596 54.12 271.525 54.555 L 275.081 55.33 C 276.748 55.71 278.012 56.315 278.872 57.144 C 279.732 57.973 280.162 59.095 280.162 60.508 C 280.162 62.33 279.471 63.763 278.09 64.81 C 276.709 65.857 274.873 66.38 272.58 66.38 Z" class="b1" style="white-space: pre;"/>
  <g id="line-supplement" transform="matrix(0.911477, -0.154561, 0.161148, 0.950326, 94.075981, 16.6514)" style="">
    <line id="xx" x1="36.8" x2="58.4" y1="37" y2="37" fill="none" stroke="#000000" stroke-linecap="round" stroke-linejoin="round" stroke-miterlimit="10" stroke-width="2"/>
  </g>
  <g id="color" transform="matrix(0.911477, -0.154561, 0.161148, 0.950326, 94.075981, 16.6514)" style="">
    <polygon points="12.9,36 16.5,67 55.5,67 59.1,36" style="fill: rgb(33, 117, 216);"/>
    <polygon points="45.1,36 41.5,67 55.5,67 59.1,36" style="fill: rgb(0, 91, 174);"/>
    <rect x="38.214" y="48.5136" width="13.3" height="13.6" transform="matrix(0.157 -0.9876 0.9876 0.157 -16.8073 90.937)" fill="#FFFFFF"/>
    <rect x="18.808" y="35.8905" width="14.5005" height="12.7004" transform="matrix(0.9535 -0.3015 0.3015 0.9535 -11.5227 9.8218)" fill="#FFFFFF"/>
  </g>
  <g id="line" transform="matrix(0.911477, -0.154561, 0.161148, 0.950326, 94.075981, 16.6514)" style="">
    <polyline fill="none" stroke-linecap="round" stroke-linejoin="round" stroke-miterlimit="10" stroke-width="2" points="60,28 55.5,67 16.5,67 12,28" style="stroke: rgb(51, 51, 51);"/>
    <rect x="38.214" y="48.5136" width="13.3" height="13.6" transform="matrix(0.157 -0.9876 0.9876 0.157 -16.8073 90.937)" fill="none" stroke-linecap="round" stroke-linejoin="round" stroke-miterlimit="10" stroke-width="1.7923" style="stroke: rgb(51, 51, 51);"/>
    <rect x="18.808" y="35.8905" width="14.5005" height="12.7004" transform="matrix(0.9535 -0.3015 0.3015 0.9535 -11.5227 9.8218)" fill="none" stroke-linecap="round" stroke-linejoin="round" stroke-miterlimit="10" stroke-width="1.8081" style="stroke: rgb(51, 51, 51);"/>
  </g>
  <path d="M 184.94 79.312 L 185.435 76.199 L 183.463 72.721 L 184.304 72.721 L 185.875 75.517 L 188.343 72.721 L 189.278 72.721 L 186.202 76.19 L 185.706 79.312 L 184.94 79.312 Z M 190.254 79.397 C 189.606 79.397 189.092 79.217 188.712 78.859 C 188.331 78.501 188.141 78.01 188.141 77.387 C 188.141 76.894 188.241 76.444 188.441 76.036 C 188.64 75.627 188.92 75.3 189.282 75.054 C 189.643 74.808 190.074 74.685 190.572 74.685 C 191.046 74.685 191.421 74.794 191.699 75.012 C 191.976 75.23 192.165 75.515 192.264 75.867 C 192.364 76.219 192.386 76.598 192.33 77.003 L 192.302 77.2 L 188.88 77.2 C 188.836 77.686 188.939 78.072 189.188 78.359 C 189.438 78.646 189.806 78.789 190.292 78.789 C 190.578 78.789 190.845 78.747 191.091 78.663 C 191.337 78.579 191.563 78.446 191.769 78.265 L 192.021 78.78 C 191.809 78.979 191.544 79.132 191.227 79.238 C 190.909 79.344 190.585 79.397 190.254 79.397 Z M 190.563 75.246 C 190.232 75.246 189.958 75.316 189.74 75.456 C 189.522 75.596 189.349 75.779 189.221 76.003 C 189.093 76.227 189.005 76.461 188.955 76.704 L 191.722 76.704 C 191.759 76.293 191.689 75.947 191.512 75.666 C 191.334 75.386 191.018 75.246 190.563 75.246 Z M 194.928 79.397 C 194.399 79.397 194.011 79.247 193.764 78.948 C 193.518 78.649 193.436 78.25 193.517 77.751 L 193.9 75.358 L 193.003 75.358 L 193.105 74.769 L 193.994 74.769 L 194.209 73.376 L 194.966 73.376 L 194.751 74.769 L 196.191 74.769 L 196.088 75.358 L 194.648 75.358 L 194.283 77.676 C 194.221 78.057 194.26 78.331 194.4 78.499 C 194.54 78.667 194.763 78.752 195.069 78.752 C 195.175 78.752 195.273 78.741 195.363 78.719 C 195.454 78.697 195.539 78.674 195.62 78.649 L 195.695 79.238 C 195.614 79.281 195.5 79.319 195.354 79.35 C 195.207 79.381 195.066 79.397 194.928 79.397 Z M 200.719 79.397 C 200.457 79.397 200.212 79.337 199.985 79.219 C 199.757 79.101 199.575 78.939 199.438 78.733 C 199.301 78.527 199.232 78.293 199.232 78.032 C 199.232 77.552 199.436 77.206 199.845 76.994 C 200.253 76.782 200.906 76.676 201.803 76.676 L 202.448 76.676 L 202.495 76.396 C 202.557 76.04 202.511 75.768 202.355 75.578 C 202.199 75.387 201.925 75.292 201.532 75.292 C 200.977 75.292 200.463 75.451 199.99 75.769 L 199.775 75.218 C 199.999 75.056 200.278 74.926 200.611 74.83 C 200.945 74.733 201.28 74.685 201.616 74.685 C 202.252 74.685 202.698 74.859 202.953 75.208 C 203.209 75.557 203.29 76.022 203.196 76.601 L 202.766 79.312 L 202.046 79.312 L 202.159 78.602 C 202.003 78.87 201.794 79.069 201.532 79.2 C 201.27 79.331 200.999 79.397 200.719 79.397 Z M 200.906 78.826 C 201.242 78.826 201.545 78.713 201.813 78.485 C 202.081 78.258 202.249 77.941 202.317 77.536 L 202.374 77.172 L 201.906 77.172 C 201.426 77.172 201.048 77.196 200.77 77.246 C 200.493 77.296 200.295 77.38 200.177 77.499 C 200.058 77.617 199.999 77.779 199.999 77.985 C 199.999 78.259 200.089 78.468 200.27 78.611 C 200.451 78.755 200.663 78.826 200.906 78.826 Z M 204.156 79.312 L 204.885 74.769 L 205.624 74.769 L 205.493 75.545 C 205.661 75.271 205.884 75.059 206.161 74.909 C 206.439 74.759 206.761 74.685 207.129 74.685 C 207.634 74.685 208.016 74.837 208.274 75.143 C 208.533 75.448 208.609 75.922 208.503 76.564 L 208.073 79.312 L 207.316 79.312 L 207.746 76.564 C 207.883 75.722 207.603 75.302 206.905 75.302 C 206.45 75.302 206.088 75.442 205.82 75.722 C 205.552 76.003 205.381 76.377 205.306 76.844 L 204.913 79.312 L 204.156 79.312 Z M 211.501 79.397 C 210.89 79.397 210.408 79.217 210.056 78.859 C 209.704 78.501 209.528 78.013 209.528 77.396 C 209.528 76.885 209.628 76.424 209.827 76.012 C 210.027 75.601 210.305 75.277 210.664 75.04 C 211.022 74.803 211.444 74.685 211.931 74.685 C 212.541 74.685 213.021 74.864 213.37 75.222 C 213.719 75.581 213.894 76.068 213.894 76.685 C 213.894 77.196 213.796 77.656 213.599 78.064 C 213.403 78.473 213.124 78.797 212.763 79.037 C 212.401 79.277 211.98 79.397 211.501 79.397 Z M 211.529 78.789 C 211.871 78.789 212.163 78.692 212.403 78.499 C 212.643 78.306 212.823 78.049 212.945 77.728 C 213.067 77.407 213.127 77.05 213.127 76.657 C 213.127 76.209 213.02 75.869 212.805 75.638 C 212.59 75.408 212.289 75.292 211.903 75.292 C 211.56 75.292 211.268 75.387 211.028 75.578 C 210.788 75.768 210.606 76.025 210.481 76.349 C 210.357 76.673 210.295 77.031 210.295 77.424 C 210.295 77.866 210.404 78.205 210.622 78.438 C 210.84 78.672 211.142 78.789 211.529 78.789 Z M 216.492 79.397 C 215.962 79.397 215.574 79.247 215.328 78.948 C 215.082 78.649 214.999 78.25 215.081 77.751 L 215.464 75.358 L 214.566 75.358 L 214.669 74.769 L 215.557 74.769 L 215.772 73.376 L 216.53 73.376 L 216.315 74.769 L 217.754 74.769 L 217.652 75.358 L 216.212 75.358 L 215.847 77.676 C 215.785 78.057 215.824 78.331 215.964 78.499 C 216.104 78.667 216.327 78.752 216.632 78.752 C 216.738 78.752 216.837 78.741 216.927 78.719 C 217.017 78.697 217.103 78.674 217.184 78.649 L 217.259 79.238 C 217.178 79.281 217.064 79.319 216.918 79.35 C 216.771 79.381 216.629 79.397 216.492 79.397 Z M 217.884 79.312 L 218.931 72.721 L 219.688 72.721 L 219.249 75.507 C 219.417 75.246 219.638 75.043 219.913 74.9 C 220.187 74.756 220.502 74.685 220.857 74.685 C 221.362 74.685 221.743 74.837 222.002 75.143 C 222.261 75.448 222.337 75.922 222.231 76.564 L 221.801 79.312 L 221.044 79.312 L 221.474 76.564 C 221.611 75.722 221.331 75.302 220.633 75.302 C 220.178 75.302 219.816 75.442 219.548 75.722 C 219.28 76.003 219.109 76.377 219.034 76.844 L 218.641 79.312 L 217.884 79.312 Z M 225.374 79.397 C 224.726 79.397 224.212 79.217 223.831 78.859 C 223.451 78.501 223.261 78.01 223.261 77.387 C 223.261 76.894 223.361 76.444 223.56 76.036 C 223.76 75.627 224.04 75.3 224.402 75.054 C 224.763 74.808 225.193 74.685 225.692 74.685 C 226.166 74.685 226.541 74.794 226.818 75.012 C 227.096 75.23 227.284 75.515 227.384 75.867 C 227.484 76.219 227.506 76.598 227.449 77.003 L 227.421 77.2 L 224 77.2 C 223.956 77.686 224.059 78.072 224.308 78.359 C 224.557 78.646 224.925 78.789 225.411 78.789 C 225.698 78.789 225.965 78.747 226.211 78.663 C 226.457 78.579 226.683 78.446 226.889 78.265 L 227.141 78.78 C 226.929 78.979 226.664 79.132 226.346 79.238 C 226.028 79.344 225.704 79.397 225.374 79.397 Z M 225.682 75.246 C 225.352 75.246 225.078 75.316 224.86 75.456 C 224.642 75.596 224.469 75.779 224.341 76.003 C 224.213 76.227 224.124 76.461 224.074 76.704 L 226.842 76.704 C 226.879 76.293 226.809 75.947 226.631 75.666 C 226.454 75.386 226.137 75.246 225.682 75.246 Z M 228.169 79.312 L 228.898 74.769 L 229.637 74.769 L 229.515 75.526 C 229.652 75.283 229.844 75.088 230.09 74.942 C 230.336 74.795 230.637 74.706 230.992 74.675 L 231.357 74.647 L 231.366 75.302 L 230.843 75.348 C 230.344 75.398 229.984 75.548 229.763 75.797 C 229.542 76.047 229.397 76.383 229.328 76.807 L 228.936 79.312 L 228.169 79.312 Z M 234.412 79.312 L 235.142 74.769 L 235.88 74.769 L 235.749 75.545 C 235.918 75.264 236.131 75.051 236.39 74.904 C 236.648 74.758 236.93 74.685 237.236 74.685 C 237.566 74.685 237.84 74.766 238.059 74.928 C 238.277 75.09 238.423 75.327 238.498 75.638 C 238.66 75.333 238.88 75.098 239.157 74.932 C 239.434 74.767 239.757 74.685 240.125 74.685 C 240.598 74.685 240.958 74.836 241.205 75.138 C 241.451 75.44 241.524 75.916 241.424 76.564 L 240.985 79.312 L 240.228 79.312 L 240.667 76.526 C 240.792 75.71 240.536 75.302 239.9 75.302 C 239.52 75.302 239.205 75.439 238.956 75.713 C 238.707 75.987 238.545 76.364 238.47 76.844 L 238.077 79.312 L 237.32 79.312 L 237.759 76.526 C 237.89 75.71 237.638 75.302 237.002 75.302 C 236.622 75.302 236.307 75.439 236.058 75.713 C 235.809 75.987 235.643 76.364 235.562 76.844 L 235.17 79.312 L 234.412 79.312 Z M 243.911 79.397 C 243.649 79.397 243.404 79.337 243.177 79.219 C 242.949 79.101 242.767 78.939 242.63 78.733 C 242.493 78.527 242.424 78.293 242.424 78.032 C 242.424 77.552 242.628 77.206 243.037 76.994 C 243.445 76.782 244.098 76.676 244.995 76.676 L 245.64 76.676 L 245.687 76.396 C 245.749 76.04 245.703 75.768 245.547 75.578 C 245.391 75.387 245.117 75.292 244.724 75.292 C 244.169 75.292 243.655 75.451 243.182 75.769 L 242.967 75.218 C 243.191 75.056 243.47 74.926 243.803 74.83 C 244.137 74.733 244.472 74.685 244.808 74.685 C 245.444 74.685 245.89 74.859 246.145 75.208 C 246.401 75.557 246.482 76.022 246.388 76.601 L 245.958 79.312 L 245.238 79.312 L 245.351 78.602 C 245.195 78.87 244.986 79.069 244.724 79.2 C 244.462 79.331 244.191 79.397 243.911 79.397 Z M 244.098 78.826 C 244.434 78.826 244.737 78.713 245.005 78.485 C 245.273 78.258 245.441 77.941 245.509 77.536 L 245.566 77.172 L 245.098 77.172 C 244.618 77.172 244.24 77.196 243.962 77.246 C 243.685 77.296 243.487 77.38 243.369 77.499 C 243.25 77.617 243.191 77.779 243.191 77.985 C 243.191 78.259 243.281 78.468 243.462 78.611 C 243.643 78.755 243.855 78.826 244.098 78.826 Z M 249.162 79.397 C 248.638 79.397 248.216 79.222 247.895 78.873 C 247.574 78.524 247.414 78.05 247.414 77.452 C 247.414 76.947 247.502 76.484 247.68 76.064 C 247.858 75.643 248.116 75.308 248.456 75.059 C 248.796 74.809 249.205 74.685 249.685 74.685 C 250.028 74.685 250.337 74.764 250.611 74.923 C 250.885 75.082 251.085 75.327 251.209 75.657 L 251.667 72.721 L 252.425 72.721 L 251.378 79.312 L 250.639 79.312 L 250.761 78.555 C 250.586 78.817 250.363 79.023 250.092 79.172 C 249.821 79.322 249.511 79.397 249.162 79.397 Z M 249.405 78.789 C 249.754 78.789 250.047 78.692 250.284 78.499 C 250.521 78.306 250.701 78.049 250.826 77.728 C 250.951 77.407 251.013 77.05 251.013 76.657 C 251.013 76.209 250.904 75.869 250.686 75.638 C 250.468 75.408 250.168 75.292 249.788 75.292 C 249.439 75.292 249.146 75.387 248.909 75.578 C 248.673 75.768 248.492 76.025 248.367 76.349 C 248.242 76.673 248.18 77.031 248.18 77.424 C 248.18 77.866 248.289 78.205 248.507 78.438 C 248.726 78.672 249.025 78.789 249.405 78.789 Z M 254.613 79.397 C 254.09 79.397 253.667 79.222 253.346 78.873 C 253.025 78.524 252.865 78.05 252.865 77.452 C 252.865 76.947 252.954 76.484 253.131 76.064 C 253.309 75.643 253.568 75.308 253.907 75.059 C 254.247 74.809 254.657 74.685 255.137 74.685 C 255.48 74.685 255.788 74.764 256.062 74.923 C 256.337 75.082 256.536 75.327 256.661 75.657 L 257.119 72.721 L 257.876 72.721 L 256.829 79.312 L 256.09 79.312 L 256.212 78.555 C 256.037 78.817 255.815 79.023 255.543 79.172 C 255.272 79.322 254.962 79.397 254.613 79.397 Z M 254.856 78.789 C 255.205 78.789 255.498 78.692 255.735 78.499 C 255.972 78.306 256.153 78.049 256.277 77.728 C 256.402 77.407 256.464 77.05 256.464 76.657 C 256.464 76.209 256.355 75.869 256.137 75.638 C 255.919 75.408 255.62 75.292 255.24 75.292 C 254.891 75.292 254.598 75.387 254.361 75.578 C 254.124 75.768 253.943 76.025 253.819 76.349 C 253.694 76.673 253.632 77.031 253.632 77.424 C 253.632 77.866 253.741 78.205 253.959 78.438 C 254.177 78.672 254.476 78.789 254.856 78.789 Z M 260.424 79.397 C 259.776 79.397 259.261 79.217 258.881 78.859 C 258.501 78.501 258.311 78.01 258.311 77.387 C 258.311 76.894 258.411 76.444 258.61 76.036 C 258.81 75.627 259.09 75.3 259.451 75.054 C 259.813 74.808 260.243 74.685 260.742 74.685 C 261.215 74.685 261.591 74.794 261.868 75.012 C 262.146 75.23 262.334 75.515 262.434 75.867 C 262.534 76.219 262.555 76.598 262.499 77.003 L 262.471 77.2 L 259.049 77.2 C 259.006 77.686 259.109 78.072 259.358 78.359 C 259.607 78.646 259.975 78.789 260.461 78.789 C 260.748 78.789 261.014 78.747 261.261 78.663 C 261.507 78.579 261.733 78.446 261.938 78.265 L 262.191 78.78 C 261.979 78.979 261.714 79.132 261.396 79.238 C 261.078 79.344 260.754 79.397 260.424 79.397 Z M 260.732 75.246 C 260.402 75.246 260.128 75.316 259.91 75.456 C 259.691 75.596 259.519 75.779 259.391 76.003 C 259.263 76.227 259.174 76.461 259.124 76.704 L 261.892 76.704 C 261.929 76.293 261.859 75.947 261.681 75.666 C 261.504 75.386 261.187 75.246 260.732 75.246 Z M 263.219 79.312 L 263.948 74.769 L 264.687 74.769 L 264.556 75.545 C 264.724 75.271 264.947 75.059 265.224 74.909 C 265.502 74.759 265.824 74.685 266.192 74.685 C 266.697 74.685 267.078 74.837 267.337 75.143 C 267.596 75.448 267.672 75.922 267.566 76.564 L 267.136 79.312 L 266.379 79.312 L 266.809 76.564 C 266.946 75.722 266.666 75.302 265.967 75.302 C 265.512 75.302 265.151 75.442 264.883 75.722 C 264.615 76.003 264.444 76.377 264.369 76.844 L 263.976 79.312 L 263.219 79.312 Z M 269.348 73.638 L 269.479 72.787 L 270.414 72.787 L 270.273 73.638 L 269.348 73.638 Z M 268.525 79.312 L 269.245 74.769 L 270.002 74.769 L 269.282 79.312 L 268.525 79.312 Z M 270.695 79.312 L 271.424 74.769 L 272.163 74.769 L 272.032 75.545 C 272.2 75.271 272.423 75.059 272.7 74.909 C 272.978 74.759 273.3 74.685 273.668 74.685 C 274.173 74.685 274.555 74.837 274.813 75.143 C 275.072 75.448 275.148 75.922 275.042 76.564 L 274.612 79.312 L 273.855 79.312 L 274.285 76.564 C 274.422 75.722 274.142 75.302 273.444 75.302 C 272.989 75.302 272.627 75.442 272.359 75.722 C 272.091 76.003 271.92 76.377 271.845 76.844 L 271.452 79.312 L 270.695 79.312 Z M 277.979 81.079 C 277.556 81.079 277.175 81.019 276.839 80.897 C 276.502 80.776 276.203 80.615 275.941 80.416 L 276.203 79.855 C 276.477 80.048 276.742 80.199 276.998 80.308 C 277.253 80.417 277.552 80.472 277.895 80.472 C 278.294 80.472 278.618 80.37 278.868 80.168 C 279.117 79.965 279.276 79.652 279.344 79.228 L 279.485 78.368 C 279.316 78.63 279.095 78.836 278.821 78.985 C 278.547 79.135 278.235 79.21 277.886 79.21 C 277.337 79.21 276.898 79.041 276.568 78.705 C 276.237 78.368 276.072 77.916 276.072 77.349 C 276.072 76.882 276.163 76.445 276.343 76.04 C 276.524 75.635 276.786 75.308 277.129 75.059 C 277.471 74.809 277.886 74.685 278.372 74.685 C 278.721 74.685 279.033 74.764 279.307 74.923 C 279.581 75.082 279.781 75.324 279.905 75.648 L 280.046 74.769 L 280.784 74.769 L 280.083 79.191 C 279.883 80.45 279.182 81.079 277.979 81.079 Z M 278.082 78.593 C 278.431 78.593 278.727 78.499 278.97 78.312 C 279.213 78.125 279.397 77.877 279.522 77.569 C 279.647 77.26 279.709 76.925 279.709 76.564 C 279.709 76.165 279.6 75.853 279.382 75.629 C 279.164 75.405 278.858 75.292 278.466 75.292 C 278.11 75.292 277.813 75.387 277.573 75.578 C 277.333 75.768 277.152 76.015 277.03 76.321 C 276.909 76.626 276.845 76.956 276.839 77.312 C 276.839 77.723 276.948 78.039 277.166 78.261 C 277.384 78.482 277.69 78.593 278.082 78.593 Z M 285.878 79.397 C 285.616 79.397 285.372 79.337 285.144 79.219 C 284.917 79.101 284.735 78.939 284.597 78.733 C 284.46 78.527 284.392 78.293 284.392 78.032 C 284.392 77.552 284.596 77.206 285.004 76.994 C 285.412 76.782 286.065 76.676 286.963 76.676 L 287.608 76.676 L 287.655 76.396 C 287.717 76.04 287.67 75.768 287.514 75.578 C 287.359 75.387 287.084 75.292 286.692 75.292 C 286.137 75.292 285.623 75.451 285.149 75.769 L 284.934 75.218 C 285.158 75.056 285.437 74.926 285.771 74.83 C 286.104 74.733 286.439 74.685 286.776 74.685 C 287.411 74.685 287.857 74.859 288.113 75.208 C 288.368 75.557 288.449 76.022 288.356 76.601 L 287.926 79.312 L 287.206 79.312 L 287.318 78.602 C 287.162 78.87 286.953 79.069 286.692 79.2 C 286.43 79.331 286.159 79.397 285.878 79.397 Z M 286.065 78.826 C 286.402 78.826 286.704 78.713 286.972 78.485 C 287.24 78.258 287.408 77.941 287.477 77.536 L 287.533 77.172 L 287.066 77.172 C 286.586 77.172 286.207 77.196 285.93 77.246 C 285.652 77.296 285.454 77.38 285.336 77.499 C 285.218 77.617 285.158 77.779 285.158 77.985 C 285.158 78.259 285.249 78.468 285.429 78.611 C 285.61 78.755 285.822 78.826 286.065 78.826 Z M 290.933 79.397 C 290.441 79.397 290.067 79.244 289.811 78.939 C 289.556 78.633 289.481 78.156 289.587 77.508 L 290.017 74.769 L 290.774 74.769 L 290.344 77.508 C 290.207 78.35 290.478 78.77 291.157 78.77 C 291.594 78.77 291.944 78.63 292.209 78.35 C 292.474 78.069 292.644 77.695 292.719 77.228 L 293.102 74.769 L 293.859 74.769 L 293.139 79.312 L 292.401 79.312 L 292.522 78.546 C 292.354 78.814 292.134 79.023 291.863 79.172 C 291.592 79.322 291.282 79.397 290.933 79.397 Z M 296.442 79.397 C 295.912 79.397 295.524 79.247 295.278 78.948 C 295.032 78.649 294.949 78.25 295.03 77.751 L 295.414 75.358 L 294.516 75.358 L 294.619 74.769 L 295.507 74.769 L 295.722 73.376 L 296.479 73.376 L 296.264 74.769 L 297.704 74.769 L 297.601 75.358 L 296.162 75.358 L 295.797 77.676 C 295.735 78.057 295.774 78.331 295.914 78.499 C 296.054 78.667 296.277 78.752 296.582 78.752 C 296.688 78.752 296.786 78.741 296.877 78.719 C 296.967 78.697 297.053 78.674 297.134 78.649 L 297.209 79.238 C 297.128 79.281 297.014 79.319 296.867 79.35 C 296.721 79.381 296.579 79.397 296.442 79.397 Z M 297.834 79.312 L 298.881 72.721 L 299.638 72.721 L 299.199 75.507 C 299.367 75.246 299.588 75.043 299.862 74.9 C 300.137 74.756 300.451 74.685 300.807 74.685 C 301.312 74.685 301.693 74.837 301.952 75.143 C 302.211 75.448 302.287 75.922 302.181 76.564 L 301.751 79.312 L 300.994 79.312 L 301.424 76.564 C 301.561 75.722 301.28 75.302 300.582 75.302 C 300.127 75.302 299.766 75.442 299.498 75.722 C 299.23 76.003 299.058 76.377 298.984 76.844 L 298.591 79.312 L 297.834 79.312 Z M 305.318 79.397 C 304.67 79.397 304.156 79.217 303.776 78.859 C 303.396 78.501 303.205 78.01 303.205 77.387 C 303.205 76.894 303.305 76.444 303.505 76.036 C 303.704 75.627 303.985 75.3 304.346 75.054 C 304.708 74.808 305.138 74.685 305.636 74.685 C 306.11 74.685 306.485 74.794 306.763 75.012 C 307.04 75.23 307.229 75.515 307.328 75.867 C 307.428 76.219 307.45 76.598 307.394 77.003 L 307.366 77.2 L 303.944 77.2 C 303.9 77.686 304.003 78.072 304.253 78.359 C 304.502 78.646 304.87 78.789 305.356 78.789 C 305.642 78.789 305.909 78.747 306.155 78.663 C 306.401 78.579 306.627 78.446 306.833 78.265 L 307.085 78.78 C 306.873 78.979 306.609 79.132 306.291 79.238 C 305.973 79.344 305.649 79.397 305.318 79.397 Z M 305.627 75.246 C 305.297 75.246 305.022 75.316 304.804 75.456 C 304.586 75.596 304.413 75.779 304.285 76.003 C 304.157 76.227 304.069 76.461 304.019 76.704 L 306.786 76.704 C 306.824 76.293 306.753 75.947 306.576 75.666 C 306.398 75.386 306.082 75.246 305.627 75.246 Z M 308.113 79.312 L 308.843 74.769 L 309.581 74.769 L 309.45 75.545 C 309.619 75.271 309.841 75.059 310.119 74.909 C 310.396 74.759 310.719 74.685 311.086 74.685 C 311.591 74.685 311.973 74.837 312.232 75.143 C 312.49 75.448 312.567 75.922 312.461 76.564 L 312.031 79.312 L 311.273 79.312 L 311.703 76.564 C 311.841 75.722 311.56 75.302 310.862 75.302 C 310.407 75.302 310.046 75.442 309.777 75.722 C 309.509 76.003 309.338 76.377 309.263 76.844 L 308.871 79.312 L 308.113 79.312 Z M 315.299 79.397 C 314.769 79.397 314.381 79.247 314.135 78.948 C 313.889 78.649 313.806 78.25 313.887 77.751 L 314.27 75.358 L 313.373 75.358 L 313.476 74.769 L 314.364 74.769 L 314.579 73.376 L 315.336 73.376 L 315.121 74.769 L 316.561 74.769 L 316.458 75.358 L 315.018 75.358 L 314.654 77.676 C 314.591 78.057 314.63 78.331 314.771 78.499 C 314.911 78.667 315.134 78.752 315.439 78.752 C 315.545 78.752 315.643 78.741 315.734 78.719 C 315.824 78.697 315.91 78.674 315.991 78.649 L 316.066 79.238 C 315.984 79.281 315.871 79.319 315.724 79.35 C 315.578 79.381 315.436 79.397 315.299 79.397 Z M 317.513 73.638 L 317.644 72.787 L 318.579 72.787 L 318.439 73.638 L 317.513 73.638 Z M 316.691 79.312 L 317.41 74.769 L 318.168 74.769 L 317.448 79.312 L 316.691 79.312 Z M 320.926 79.397 C 320.253 79.397 319.753 79.21 319.426 78.836 C 319.099 78.462 318.935 77.976 318.935 77.377 C 318.935 77.041 318.982 76.713 319.075 76.396 C 319.169 76.078 319.315 75.789 319.515 75.531 C 319.714 75.272 319.967 75.066 320.272 74.914 C 320.577 74.761 320.942 74.685 321.366 74.685 C 321.665 74.685 321.952 74.735 322.226 74.834 C 322.5 74.934 322.718 75.068 322.88 75.236 L 322.609 75.779 C 322.291 75.461 321.886 75.302 321.394 75.302 C 320.989 75.302 320.663 75.403 320.417 75.606 C 320.171 75.808 319.992 76.068 319.879 76.386 C 319.767 76.704 319.711 77.031 319.711 77.368 C 319.711 77.792 319.812 78.133 320.015 78.392 C 320.218 78.65 320.553 78.78 321.02 78.78 C 321.207 78.78 321.406 78.741 321.618 78.663 C 321.83 78.585 322.027 78.465 322.207 78.303 L 322.432 78.864 C 322.251 79.032 322.022 79.163 321.745 79.256 C 321.467 79.35 321.194 79.397 320.926 79.397 Z M 324.666 79.397 C 324.404 79.397 324.16 79.337 323.932 79.219 C 323.705 79.101 323.522 78.939 323.385 78.733 C 323.248 78.527 323.18 78.293 323.18 78.032 C 323.18 77.552 323.384 77.206 323.792 76.994 C 324.2 76.782 324.853 76.676 325.751 76.676 L 326.396 76.676 L 326.443 76.396 C 326.505 76.04 326.458 75.768 326.302 75.578 C 326.146 75.387 325.872 75.292 325.48 75.292 C 324.925 75.292 324.411 75.451 323.937 75.769 L 323.722 75.218 C 323.946 75.056 324.225 74.926 324.559 74.83 C 324.892 74.733 325.227 74.685 325.564 74.685 C 326.199 74.685 326.645 74.859 326.901 75.208 C 327.156 75.557 327.237 76.022 327.144 76.601 L 326.714 79.312 L 325.994 79.312 L 326.106 78.602 C 325.95 78.87 325.741 79.069 325.48 79.2 C 325.218 79.331 324.947 79.397 324.666 79.397 Z M 324.853 78.826 C 325.19 78.826 325.492 78.713 325.76 78.485 C 326.028 78.258 326.196 77.941 326.265 77.536 L 326.321 77.172 L 325.854 77.172 C 325.374 77.172 324.995 77.196 324.718 77.246 C 324.44 77.296 324.242 77.38 324.124 77.499 C 324.005 77.617 323.946 77.779 323.946 77.985 C 323.946 78.259 324.037 78.468 324.217 78.611 C 324.398 78.755 324.61 78.826 324.853 78.826 Z M 329.983 79.397 C 329.453 79.397 329.065 79.247 328.819 78.948 C 328.573 78.649 328.49 78.25 328.571 77.751 L 328.954 75.358 L 328.057 75.358 L 328.16 74.769 L 329.048 74.769 L 329.263 73.376 L 330.02 73.376 L 329.805 74.769 L 331.245 74.769 L 331.142 75.358 L 329.702 75.358 L 329.338 77.676 C 329.275 78.057 329.314 78.331 329.454 78.499 C 329.595 78.667 329.817 78.752 330.123 78.752 C 330.229 78.752 330.327 78.741 330.417 78.719 C 330.508 78.697 330.593 78.674 330.675 78.649 L 330.749 79.238 C 330.668 79.281 330.555 79.319 330.408 79.35 C 330.262 79.381 330.12 79.397 329.983 79.397 Z M 332.197 73.638 L 332.328 72.787 L 333.263 72.787 L 333.123 73.638 L 332.197 73.638 Z M 331.374 79.312 L 332.094 74.769 L 332.851 74.769 L 332.132 79.312 L 331.374 79.312 Z M 335.582 79.397 C 334.971 79.397 334.49 79.217 334.138 78.859 C 333.786 78.501 333.61 78.013 333.61 77.396 C 333.61 76.885 333.709 76.424 333.909 76.012 C 334.108 75.601 334.387 75.277 334.745 75.04 C 335.104 74.803 335.526 74.685 336.012 74.685 C 336.623 74.685 337.103 74.864 337.452 75.222 C 337.801 75.581 337.976 76.068 337.976 76.685 C 337.976 77.196 337.877 77.656 337.681 78.064 C 337.485 78.473 337.206 78.797 336.844 79.037 C 336.483 79.277 336.062 79.397 335.582 79.397 Z M 335.61 78.789 C 335.953 78.789 336.244 78.692 336.484 78.499 C 336.724 78.306 336.905 78.049 337.027 77.728 C 337.148 77.407 337.209 77.05 337.209 76.657 C 337.209 76.209 337.101 75.869 336.886 75.638 C 336.671 75.408 336.371 75.292 335.984 75.292 C 335.641 75.292 335.35 75.387 335.11 75.578 C 334.87 75.768 334.688 76.025 334.563 76.349 C 334.438 76.673 334.376 77.031 334.376 77.424 C 334.376 77.866 334.485 78.205 334.703 78.438 C 334.922 78.672 335.224 78.789 335.61 78.789 Z M 338.738 79.312 L 339.467 74.769 L 340.205 74.769 L 340.075 75.545 C 340.243 75.271 340.466 75.059 340.743 74.909 C 341.02 74.759 341.343 74.685 341.711 74.685 C 342.216 74.685 342.597 74.837 342.856 75.143 C 343.115 75.448 343.191 75.922 343.085 76.564 L 342.655 79.312 L 341.898 79.312 L 342.328 76.564 C 342.465 75.722 342.184 75.302 341.486 75.302 C 341.031 75.302 340.67 75.442 340.402 75.722 C 340.134 76.003 339.962 76.377 339.888 76.844 L 339.495 79.312 L 338.738 79.312 Z M 348.672 79.397 C 348.305 79.397 347.962 79.347 347.644 79.247 C 347.326 79.147 347.068 79.01 346.868 78.836 L 347.149 78.312 C 347.373 78.487 347.614 78.614 347.873 78.695 C 348.132 78.776 348.401 78.817 348.682 78.817 C 349.018 78.817 349.282 78.75 349.472 78.616 C 349.662 78.482 349.757 78.293 349.757 78.05 C 349.757 77.739 349.558 77.536 349.159 77.443 L 348.27 77.228 C 347.959 77.159 347.714 77.025 347.537 76.826 C 347.359 76.626 347.27 76.383 347.27 76.096 C 347.27 75.691 347.437 75.355 347.77 75.087 C 348.104 74.819 348.557 74.685 349.131 74.685 C 349.442 74.685 349.741 74.736 350.028 74.839 C 350.315 74.942 350.545 75.08 350.72 75.255 L 350.458 75.769 C 350.097 75.433 349.645 75.264 349.103 75.264 C 348.753 75.264 348.479 75.336 348.28 75.479 C 348.08 75.623 347.981 75.816 347.981 76.059 C 347.981 76.209 348.026 76.338 348.116 76.447 C 348.207 76.556 348.348 76.632 348.542 76.676 L 349.43 76.891 C 349.76 76.972 350.017 77.105 350.201 77.288 C 350.385 77.472 350.477 77.711 350.477 78.004 C 350.477 78.44 350.31 78.781 349.977 79.027 C 349.643 79.274 349.208 79.397 348.672 79.397 Z M 353.607 79.397 C 352.959 79.397 352.445 79.217 352.065 78.859 C 351.684 78.501 351.494 78.01 351.494 77.387 C 351.494 76.894 351.594 76.444 351.793 76.036 C 351.993 75.627 352.273 75.3 352.635 75.054 C 352.996 74.808 353.426 74.685 353.925 74.685 C 354.399 74.685 354.774 74.794 355.052 75.012 C 355.329 75.23 355.518 75.515 355.617 75.867 C 355.717 76.219 355.739 76.598 355.683 77.003 L 355.655 77.2 L 352.233 77.2 C 352.189 77.686 352.292 78.072 352.541 78.359 C 352.791 78.646 353.158 78.789 353.645 78.789 C 353.931 78.789 354.198 78.747 354.444 78.663 C 354.69 78.579 354.916 78.446 355.122 78.265 L 355.374 78.78 C 355.162 78.979 354.897 79.132 354.58 79.238 C 354.262 79.344 353.938 79.397 353.607 79.397 Z M 353.916 75.246 C 353.585 75.246 353.311 75.316 353.093 75.456 C 352.875 75.596 352.702 75.779 352.574 76.003 C 352.446 76.227 352.358 76.461 352.308 76.704 L 355.075 76.704 C 355.112 76.293 355.042 75.947 354.865 75.666 C 354.687 75.386 354.371 75.246 353.916 75.246 Z M 356.397 79.312 L 357.126 74.769 L 357.865 74.769 L 357.743 75.526 C 357.88 75.283 358.072 75.088 358.318 74.942 C 358.564 74.795 358.865 74.706 359.22 74.675 L 359.585 74.647 L 359.594 75.302 L 359.071 75.348 C 358.572 75.398 358.212 75.548 357.991 75.797 C 357.77 76.047 357.625 76.383 357.556 76.807 L 357.164 79.312 L 356.397 79.312 Z M 361.364 79.312 L 360.14 74.769 L 360.925 74.769 L 361.841 78.452 L 363.945 74.769 L 364.758 74.769 L 362.084 79.312 L 361.364 79.312 Z M 365.662 73.638 L 365.793 72.787 L 366.728 72.787 L 366.588 73.638 L 365.662 73.638 Z M 364.84 79.312 L 365.56 74.769 L 366.317 74.769 L 365.597 79.312 L 364.84 79.312 Z M 369.07 79.397 C 368.397 79.397 367.897 79.21 367.57 78.836 C 367.243 78.462 367.079 77.976 367.079 77.377 C 367.079 77.041 367.126 76.713 367.219 76.396 C 367.313 76.078 367.459 75.789 367.659 75.531 C 367.858 75.272 368.111 75.066 368.416 74.914 C 368.721 74.761 369.086 74.685 369.51 74.685 C 369.809 74.685 370.096 74.735 370.37 74.834 C 370.644 74.934 370.862 75.068 371.024 75.236 L 370.753 75.779 C 370.435 75.461 370.03 75.302 369.538 75.302 C 369.133 75.302 368.807 75.403 368.561 75.606 C 368.315 75.808 368.135 76.068 368.023 76.386 C 367.911 76.704 367.855 77.031 367.855 77.368 C 367.855 77.792 367.956 78.133 368.159 78.392 C 368.361 78.65 368.696 78.78 369.164 78.78 C 369.351 78.78 369.55 78.741 369.762 78.663 C 369.974 78.585 370.17 78.465 370.351 78.303 L 370.576 78.864 C 370.395 79.032 370.166 79.163 369.888 79.256 C 369.611 79.35 369.338 79.397 369.07 79.397 Z M 373.42 79.397 C 372.772 79.397 372.258 79.217 371.878 78.859 C 371.497 78.501 371.307 78.01 371.307 77.387 C 371.307 76.894 371.407 76.444 371.606 76.036 C 371.806 75.627 372.086 75.3 372.448 75.054 C 372.809 74.808 373.239 74.685 373.738 74.685 C 374.212 74.685 374.587 74.794 374.865 75.012 C 375.142 75.23 375.33 75.515 375.43 75.867 C 375.53 76.219 375.552 76.598 375.496 77.003 L 375.468 77.2 L 372.046 77.2 C 372.002 77.686 372.105 78.072 372.354 78.359 C 372.604 78.646 372.971 78.789 373.458 78.789 C 373.744 78.789 374.011 78.747 374.257 78.663 C 374.503 78.579 374.729 78.446 374.935 78.265 L 375.187 78.78 C 374.975 78.979 374.71 79.132 374.392 79.238 C 374.075 79.344 373.75 79.397 373.42 79.397 Z M 373.729 75.246 C 373.398 75.246 373.124 75.316 372.906 75.456 C 372.688 75.596 372.515 75.779 372.387 76.003 C 372.259 76.227 372.17 76.461 372.121 76.704 L 374.888 76.704 C 374.925 76.293 374.855 75.947 374.678 75.666 C 374.5 75.386 374.184 75.246 373.729 75.246 Z" style="white-space: pre;" class="g1"/>
</svg>